<svg width="271" height="82" viewBox="0 0 271 82" fill="none" xmlns="http://www.w3.org/2000/svg">
<g clip-path="url(#clip0_1235_2117)">
<path d="M0 66.6651C0.45717 65.298 1.21912 64.1546 2.51443 63.3841C4.08913 62.4644 5.48604 62.5887 6.83215 63.8066C7.41631 64.3535 7.94967 64.95 8.35605 65.6211C9.14339 66.9882 10.0323 68.3056 10.6927 69.7224C12.0896 72.7051 14.5024 74.1716 17.728 74.5444C20.6996 74.8924 23.5442 74.4202 26.2619 73.1276C27.7858 72.4068 28.9287 71.3132 29.7922 69.8964C30.8844 68.057 30.7574 66.2674 29.462 64.5523C27.8366 62.4147 25.5761 61.2216 23.0363 60.4262C19.6837 59.3823 16.1787 58.8106 12.8261 57.7418C10.8197 57.0955 8.88941 56.3498 7.11153 55.2562C0.507966 51.2792 -1.01593 41.9831 4.03833 36.5396C5.53683 34.9239 7.4925 33.9794 9.47357 33.0597C17.1693 29.5302 24.7634 29.729 32.1035 33.9297C35.1513 35.6696 37.2847 38.2547 37.9959 41.7594C38.4785 44.1704 37.1577 46.482 34.8465 47.4265C33.6274 47.9236 32.5352 47.6254 31.5447 46.8797C30.732 46.2583 30.0716 45.4629 29.462 44.6426C28.8779 43.8224 28.2429 43.0022 27.7096 42.157C26.2619 39.746 24.2554 38.1304 21.3346 37.8321C18.109 37.4841 15.0866 37.9067 12.4706 39.92C9.75295 42.0079 9.85455 45.438 12.6484 47.4017C14.858 48.9676 17.4486 49.6387 19.9885 50.3595C24.0776 51.5526 28.2683 52.4723 32.1289 54.2619C35.4306 55.803 38.3007 57.8163 39.469 61.3956C41.3485 67.1373 40.1039 75.7375 31.3415 79.6648C26.7698 81.703 21.9695 82.1504 17.0423 81.7527C13.3849 81.4544 9.93074 80.5347 6.85755 78.4965C3.55576 76.3341 1.37151 73.3762 0.330178 69.6229C0.253983 69.3744 0.279381 69.0513 0.0253983 68.8773V66.6899L0 66.6651Z" fill="white"/>
<path d="M212.406 0.00141852C213.828 0.225123 215.276 0.399115 216.698 0.672531C222.743 1.79105 228.102 4.35122 232.725 8.30333C233.944 9.34728 233.944 9.59584 232.852 10.7392C232.471 11.1618 232.064 11.5595 231.633 11.9323C230.871 12.6531 230.464 12.6531 229.626 12.0069C229.118 11.6092 228.636 11.1618 228.102 10.7641C224.064 7.55765 219.416 5.86744 214.286 5.22118C209.79 4.64949 205.371 4.8732 201.053 6.41427C197.599 7.65707 194.551 9.59584 191.732 11.8826C190.589 12.8023 190.513 12.7774 189.471 11.7583C189.04 11.3358 188.608 10.9381 188.202 10.5155C187.389 9.67041 187.363 9.24786 188.252 8.47732C190.081 6.91139 192.087 5.56917 194.196 4.35122C198.361 1.94019 202.882 0.647675 207.682 0.150555C207.86 0.150555 208.088 0.200267 208.215 -0.0234375C209.663 0.00141852 211.035 0.00141852 212.406 0.00141852Z" fill="white"/>
<path d="M152.288 56.1513C152.288 49.6639 152.288 43.2013 152.288 36.7139C152.288 35.7445 152.466 34.8248 152.771 33.9051C153.457 31.8918 154.879 30.9224 157.139 30.9224C159.425 30.9224 161.178 32.0658 161.787 33.9797C162.397 35.9185 162.422 37.9567 162.473 39.97C162.549 43.251 162.346 46.532 162.295 49.813C162.295 50.857 162.422 51.0061 163.438 51.0061C170.042 50.9564 176.645 50.9067 183.249 50.8321C184.62 50.8321 184.722 50.7575 184.671 49.3904C184.544 45.3886 184.519 41.3868 184.569 37.3601C184.569 35.8936 184.849 34.452 185.56 33.1346C186.474 31.4444 188.278 30.4999 190.208 30.7733C192.062 31.0467 193.205 32.1404 193.713 33.93C194.322 36.0428 194.526 38.2301 194.653 40.3926C194.957 45.488 195.008 50.5835 194.957 55.679C194.881 62.2161 194.78 68.7284 194.653 75.2656C194.653 76.6824 194.424 78.0494 193.789 79.3419C192.926 81.0819 191.427 81.7033 189.573 81.7033C187.719 81.7033 186.297 80.9576 185.509 79.2674C184.798 77.7263 184.595 76.0858 184.544 74.4453C184.468 71.6614 184.544 68.9024 184.646 66.1185C184.722 63.9561 184.57 61.7936 184.519 59.656C184.519 59.0346 184.087 59.0346 183.63 59.0346C180.252 59.0594 176.848 59.1091 173.47 59.134C170.143 59.1589 166.816 59.2086 163.489 59.1837C162.778 59.1837 162.473 59.4074 162.371 60.1034C162.016 62.763 162.168 65.4226 162.27 68.0822C162.371 70.9406 162.575 73.7991 162.295 76.6575C162.041 79.4414 160.568 81.3056 158.13 81.7778C156.098 82.1755 154.32 81.3304 153.304 79.5159C152.466 78.0494 152.237 76.4586 152.263 74.8181C152.263 68.6041 152.263 62.3653 152.263 56.1513C152.263 56.1513 152.263 56.1513 152.288 56.1513Z" fill="white"/>
<path d="M64.7403 36.0669C64.7403 37.2103 64.7403 38.3786 64.7403 39.5219C64.7403 39.8948 64.6895 40.2179 64.334 40.4665C60.2194 43.1758 58.213 47.1527 57.2986 51.7759C56.1811 57.4928 56.8161 62.9363 59.9908 67.9572C62.2005 71.4619 65.4261 73.4752 69.6676 73.8978C77.6427 74.718 82.7477 70.0948 84.6272 64.1045C86.1257 59.3073 86.5067 54.4852 85.1352 49.6135C84.297 46.6059 82.4683 44.17 80.1317 42.107C78.7856 40.9139 78.1506 39.4722 78.2776 37.782C78.4046 36.1664 78.3792 34.5259 78.4046 32.9102C78.4046 31.9906 78.5316 31.916 79.4713 32.0403C84.424 32.7362 88.056 35.4207 90.8752 39.2982C93.8468 43.3746 95.3961 47.9481 95.9802 52.8696C96.5644 57.6668 96.2088 62.3646 94.4563 66.9381C91.2816 75.1406 85.2114 79.8632 76.3981 81.3049C71.5217 82.1003 66.696 81.9511 61.9719 80.3355C55.0636 77.9742 50.4157 73.4007 48.206 66.5901C45.6408 58.7356 45.7932 50.9806 49.5267 43.4492C51.4824 39.5219 53.9714 35.9675 58.0098 33.7553C59.8385 32.7611 61.7687 32.1397 63.826 31.8166C64.5117 31.7171 64.8419 31.8663 64.7911 32.612C64.7403 33.7553 64.7911 34.8987 64.7911 36.0669C64.7911 36.0669 64.7911 36.0669 64.7657 36.0669H64.7403Z" fill="white"/>
<path d="M270.975 77.1051C270.975 79.8392 269.984 81.2063 267.8 81.7532C265.184 82.3994 263.279 81.6289 261.984 79.3918C260.663 77.0802 259.799 74.5946 258.936 72.0842C257.945 69.2257 257.844 69.1512 254.796 69.176C249.361 69.2009 243.951 69.2754 238.516 69.3003C237.703 69.3003 237.246 69.5986 236.915 70.2945C235.925 72.3079 235.265 74.4703 234.452 76.5582C233.995 77.7513 233.538 78.9196 232.75 79.9387C231.353 81.7283 229.042 82.3746 227.086 81.5046C225.029 80.5849 223.988 78.5467 224.42 76.3097C224.953 73.4761 226.299 70.9159 227.34 68.2563C231.379 58.0157 235.773 47.9241 239.506 37.584C240.09 35.9684 240.954 34.477 242.046 33.1348C244.916 29.6549 250.783 29.8538 253.374 33.5325C254.186 34.7007 254.796 35.9684 255.329 37.2609C259.342 47.0044 263.33 56.748 267.368 66.4667C268.562 69.35 269.984 72.1339 270.746 75.1663C270.924 75.8623 271.076 76.5334 270.975 77.1051ZM247.507 42.5055C246.999 42.7789 246.897 43.276 246.694 43.6986C244.205 49.1918 242.3 54.8589 240.497 60.6007C240.192 61.5949 240.268 61.6695 241.335 61.7689C245.195 62.1169 249.056 62.1169 252.942 62.0175C254.313 61.9926 254.44 61.8932 254.136 60.5261C253.094 55.9526 251.393 51.578 249.691 47.2033C249.056 45.5877 248.396 43.972 247.481 42.4807L247.507 42.5055Z" fill="white"/>
<path d="M143.297 46.3805C143.297 49.1146 142.916 51.7991 141.646 54.2847C139.742 57.9882 136.44 59.8276 132.478 60.7473C129.811 61.3687 127.093 61.5675 124.376 61.5924C121.785 61.6421 119.22 61.6918 116.629 61.7664C115.334 61.7912 115.054 62.0895 115.105 63.3571C115.232 66.6878 115.359 70.0186 115.334 73.3493C115.334 74.9898 115.156 76.5805 114.699 78.1713C113.962 80.7812 111.422 82.3471 108.679 81.9246C107.384 81.7257 106.622 80.8806 106.089 79.8118C105.403 78.395 105.174 76.8788 105.047 75.3377C104.895 73.1504 105.047 70.9631 105.047 68.7758C105.047 59.579 105.047 50.3823 105.022 41.1856C105.022 39.6196 104.87 38.0537 105.022 36.4878C105.276 34.2507 106.47 32.8091 108.654 32.2126C109.416 32.0137 110.203 31.8149 111.016 31.8149C116.121 31.79 121.226 31.6906 126.331 31.7403C128.769 31.7403 131.208 31.964 133.57 32.6351C138.98 34.1513 142.662 38.5757 143.119 44.044C143.196 44.8146 143.272 45.6099 143.246 46.4053L143.297 46.3805ZM119.626 54.3841C122.369 54.3841 125.137 54.3841 127.83 53.713C132.96 52.3708 135.068 45.8585 131.665 41.8567C130.192 40.1168 128.134 39.5699 125.976 39.2468C122.648 38.7248 119.27 39.0231 115.918 39.048C115.283 39.048 115.181 39.3959 115.181 39.9179C115.131 44.4417 115.105 48.9407 115.029 53.4644C115.029 54.1356 115.308 54.4338 116.019 54.4338C117.213 54.4338 118.432 54.4338 119.626 54.4338V54.3841Z" fill="white"/>
<path d="M206.184 62.3881C206.184 57.8394 206.26 53.2908 206.184 48.767C206.107 45.3866 205.777 42.0061 205.93 38.6009C206.006 36.9355 206.26 35.3199 206.92 33.7788C207.682 32.0389 208.927 30.9701 210.984 30.9204C213.041 30.8706 214.59 31.5915 215.505 33.5054C216.394 35.3696 216.622 37.3829 216.724 39.3963C216.927 42.7767 216.597 46.182 216.495 49.5624C216.368 53.6885 216.394 57.8146 216.394 61.9158C216.394 66.539 216.394 71.1622 216.394 75.7855C216.394 76.9786 216.165 78.1716 215.657 79.2902C214.921 80.9307 213.6 81.7261 211.797 81.7758C208.215 81.8503 206.387 80.1104 206.285 76.2577C206.184 71.6345 206.285 67.0113 206.285 62.3881C206.285 62.3881 206.26 62.3881 206.234 62.3881H206.184Z" fill="white"/>
<path d="M75.6362 28.858C75.5092 31.7911 75.1282 34.7241 75.0774 37.6571C75.0266 40.3167 75.1028 42.9763 74.5949 45.611C74.3409 46.9781 73.8837 48.2457 73.1218 49.4388C72.7154 50.0851 72.182 50.2591 71.4455 50.0354C70.3279 49.7122 69.5406 49.0411 69.058 47.9972C68.5755 46.9781 68.2961 45.9093 68.2707 44.8405C68.1437 39.397 67.7627 33.9784 67.5341 28.5598C67.4833 27.3667 67.6611 26.1985 68.0421 25.0799C68.6771 23.2406 69.9724 22.4203 72.0804 22.5198C73.7313 22.5943 74.8235 23.5886 75.2806 25.4279C75.56 26.5464 75.687 27.6898 75.6362 28.858Z" fill="white"/>
<path d="M211.314 14.9628C206.082 14.9628 202.298 16.5784 198.818 19.064C197.65 19.9091 197.523 19.8843 196.38 18.9646C195.923 18.5918 195.465 18.1941 195.11 17.7218C194.424 16.8767 194.449 16.5039 195.288 15.8079C198.412 13.2726 201.891 11.3587 205.853 10.613C212.965 9.27077 219.441 10.8864 225.207 15.1368C225.537 15.3854 225.816 15.7333 226.096 16.0316C226.299 16.2553 226.451 16.5039 226.426 16.7773C226.35 18.0449 225.283 18.5918 224.445 19.2629C223.861 19.7103 223.2 19.5363 222.616 19.1386C222.032 18.7409 221.448 18.3432 220.838 17.9455C217.714 15.8328 214.209 14.9628 211.289 14.8882L211.314 14.9628Z" fill="white"/>
<path d="M210.73 20.6797C212.635 20.7294 214.514 21.0028 216.292 21.8479C216.622 21.9971 216.952 22.171 217.257 22.3699C218.781 23.389 218.883 24.3584 217.587 25.6509C217.41 25.8249 217.232 25.9989 217.029 26.1977C216.14 27.0428 215.759 27.0925 214.667 26.5457C213.879 26.148 213.143 25.626 212.279 25.4272C210.222 24.9301 208.368 25.5763 206.641 26.5706C205.574 27.1671 205.345 27.192 204.482 26.3717C204.101 25.9989 203.694 25.6509 203.313 25.2532C202.247 24.1844 202.323 23.6624 203.567 22.7676C205.701 21.2514 208.114 20.7294 210.73 20.6797Z" fill="white"/>
</g>
<defs>
<clipPath id="clip0_1235_2117">
<rect width="271" height="82" fill="white"/>
</clipPath>
</defs>
</svg>
